PathFileType	4	(X/Y/Z)	C:\Users\Basilio\Documents\Thesis Gigler\squatting_fais\c3dfiles\073\SJ_pre5\markers_experimental.trc
DataRate	CameraRate	NumFrames	NumMarkers	Units	OrigDataRate	OrigDataStartFrame	OrigNumFrames
200.000000	200.000000	4	61	mm	200.000000	850	1360
Frame#	Time	FHD			LBHD			RBHD			C7			T10			CLAV			LSHO			LUUPA			LMUPA			LDUPA			LLEP			LMEP			LRAD			LUL			LRFIN			RSHO			RUPA1			RMUPA			RDUPA			RLEP			RMEP			RRAD			RUL			RUFIN			LASI			RASI			USACR			LSACR			RSACR			LTHI1			LTHI2			LTHI3			LTHI4			LLFC			LMFC			LTIB1			LTIB2			LTIB3			LTIB4			LLMAL			LMMAL			LHEE			LMT1			LMT2			LMT5			RTHI			RTHI2			RTHI3			RTHI4			RLFC			RMFC			RTIB1			RTIB2			RTIB3			RTIB4			RLMAL			RMMAL			RHEE			RMT1			RMT2			RMT5			
		X1	Y1	Z1	X2	Y2	Z2	X3	Y3	Z3	X4	Y4	Z4	X5	Y5	Z5	X6	Y6	Z6	X7	Y7	Z7	X8	Y8	Z8	X9	Y9	Z9	X10	Y10	Z10	X11	Y11	Z11	X12	Y12	Z12	X13	Y13	Z13	X14	Y14	Z14	X15	Y15	Z15	X16	Y16	Z16	X17	Y17	Z17	X18	Y18	Z18	X19	Y19	Z19	X20	Y20	Z20	X21	Y21	Z21	X22	Y22	Z22	X23	Y23	Z23	X24	Y24	Z24	X25	Y25	Z25	X26	Y26	Z26	X27	Y27	Z27	X28	Y28	Z28	X29	Y29	Z29	X30	Y30	Z30	X31	Y31	Z31	X32	Y32	Z32	X33	Y33	Z33	X34	Y34	Z34	X35	Y35	Z35	X36	Y36	Z36	X37	Y37	Z37	X38	Y38	Z38	X39	Y39	Z39	X40	Y40	Z40	X41	Y41	Z41	X42	Y42	Z42	X43	Y43	Z43	X44	Y44	Z44	X45	Y45	Z45	X46	Y46	Z46	X47	Y47	Z47	X48	Y48	Z48	X49	Y49	Z49	X50	Y50	Z50	X51	Y51	Z51	X52	Y52	Z52	X53	Y53	Z53	X54	Y54	Z54	X55	Y55	Z55	X56	Y56	Z56	X57	Y57	Z57	X58	Y58	Z58	X59	Y59	Z59	X60	Y60	Z60	X61	Y61	Z61	

851	4.25	-185.5188293457032	1603.20263671875	-953.9268798828127	-309.9900207519532	1538.59521484375	-962.9873046875002	-312.1768493652344	1514.857421875	-830.3640136718752	-335.0579223632813	1446.897583007813	-895.066345214844	-452.9790344238282	1122.02685546875	-908.149841308594	-213.2182159423829	1348.585083007813	-914.4945068359377	-259.2770996093751	1387.379760742188	-1081.093505859375	-356.9324645996094	1323.183471679688	-1195.959106445313	-349.4174194335938	1273.170654296875	-1203.68505859375	-398.1292114257814	1285.332397460938	-1238.7080078125	-452.7432556152345	1212.204223632813	-1291.201538085938	-524.8552246093751	1211.776733398438	-1247.313354492188	-426.3779296875001	985.0056152343752	-1147.211303710938	-396.0780029296876	966.4329223632815	-1212.157104492188	-382.9349670410157	959.882507324219	-1104.61962890625	-210.9339141845704	1362.865234375	-740.1732788085939	-305.6033020019532	1287.519409179688	-600.2634887695314	-299.3332824707032	1238.174438476563	-597.3837280273439	-345.3509826660157	1247.497802734375	-558.5258789062501	-382.0236816406251	1171.076049804688	-519.2722778320314	-460.4490356445314	1177.8388671875	-569.8423461914064	-409.1393127441407	960.575866699219	-687.2003784179689	-361.7529296875001	931.3904418945315	-635.0015258789064	-353.0941467285157	946.1300048828127	-737.7538452148439	-325.5794677734376	952.820739746094	-1059.16943359375	-297.0267639160157	932.8999633789065	-816.6006469726565	-486.9756469726564	1006.490661621094	-909.5977172851565	-501.717010498047	978.5668945312502	-938.0632934570315	-498.352752685547	974.603454589844	-881.470397949219	-331.1661682128907	652.5813598632814	-1170.56787109375	-273.9460754394532	587.9992675781251	-1181.373901367188	-226.4259948730469	601.0814208984376	-1169.229125976563	-284.8254394531251	532.3725585937501	-1170.161743164063	-281.8258972167969	475.4009094238282	-1181.517822265625	-248.6226959228516	451.4856872558595	-1059.888916015625	-271.8107910156251	277.0586853027344	-1152.41015625	-347.0649108886719	266.0769042968751	-1196.771484375	-311.2396240234376	244.7516326904297	-1184.159057617188	-339.7798156738282	170.0135040283203	-1148.520751953125	-445.0487365722657	86.38319396972658	-1178.939453125	-425.9608154296876	106.023666381836	-1095.117919921875	-502.9906005859376	47.2635841369629	-1137.520629882813	-272.9984130859376	55.75162887573244	-1123.839233398438	-275.3438110351563	54.64801025390626	-1161.7685546875	-312.6945800781251	33.82825088500977	-1215.465576171875	-351.2850341796876	709.1200561523439	-708.1967163085939	-303.7657165527344	663.8482055664064	-696.3292236328126	-271.2587280273438	671.7920532226564	-700.2100219726564	-309.6569824218751	580.0769653320314	-711.2573852539064	-271.0868835449219	445.5104064941407	-698.1560058593751	-251.8165893554688	412.0540466308595	-814.8928833007815	-273.2055358886719	280.9282226562501	-764.0648193359376	-334.4652709960938	228.8305969238282	-690.7337036132814	-310.5496826171876	211.2062683105469	-728.5273437500001	-346.5067749023438	174.6967315673828	-757.0444946289064	-450.5992736816407	82.1489715576172	-691.7670288085939	-434.4832763671876	97.05501556396487	-781.0264892578127	-517.5211791992189	40.25431060791016	-745.7149047851564	-286.8000488281251	54.7374839782715	-728.6813964843751	-292.2561950683594	54.47695541381837	-688.1604614257814	-336.5214233398438	33.27821731567384	-642.1228027343751	
852	4.255	-184.032958984375	1594.9365234375	-954.274841308594	-309.4954528808594	1530.054321289063	-963.4511718750002	-311.8423461914063	1506.078247070313	-830.960876464844	-333.6073913574219	1438.04443359375	-895.5480957031252	-454.4201049804689	1115.852905273438	-908.0557861328127	-212.0974731445313	1338.612426757813	-915.1333618164065	-259.1315917968751	1377.009643554688	-1082.036865234375	-357.0875854492188	1311.727416992188	-1196.776611328125	-349.9526977539063	1261.691528320313	-1203.658447265625	-398.6520080566407	1273.668579101563	-1239.140258789063	-453.2888793945314	1200.591064453125	-1291.343872070313	-525.0970458984376	1200.16357421875	-1247.790649414063	-427.2026977539064	973.5189208984377	-1147.979248046875	-396.3499145507814	955.4505615234377	-1212.747192382813	-384.8955383300782	948.1759033203127	-1104.9609375	-210.5960845947266	1352.646362304688	-740.0817871093751	-305.9511413574219	1276.697509765625	-600.4635009765626	-299.9865722656251	1227.167602539063	-597.8605346679689	-345.6943969726563	1236.489501953125	-558.9246215820314	-382.6156921386719	1159.924194335938	-519.6662597656251	-460.8108215332032	1166.765258789063	-570.0164184570314	-409.8648071289064	949.1570434570315	-686.1269531250001	-361.8011474609376	920.743835449219	-634.4586181640626	-355.2573242187501	934.434265136719	-737.3363647460939	-328.0432434082032	940.5596313476565	-1059.081787109375	-301.4394226074219	920.4685058593752	-817.355407714844	-490.0270385742189	999.5847167968752	-909.1077880859377	-504.7622375488282	971.8114013671877	-937.596374511719	-501.8564758300782	967.6363525390627	-881.136901855469	-326.0715637207032	646.6353759765626	-1169.787231445313	-264.8328857421876	585.9083862304689	-1181.245239257813	-217.319808959961	600.5532226562501	-1168.584350585938	-273.6943359375001	529.4345703125001	-1172.122436523438	-270.4280090332032	476.7394409179689	-1182.333129882813	-246.710678100586	455.4664916992189	-1060.548461914063	-265.7739868164063	275.5674438476563	-1153.968994140625	-339.9707031250001	266.4661254882813	-1199.993041992188	-305.1194763183594	243.0549926757813	-1185.019653320313	-334.6788330078126	169.3580322265625	-1152.578979492188	-439.3450927734376	85.01036834716798	-1180.143432617188	-421.3741455078126	104.8464736938477	-1094.445190429688	-501.1458129882814	48.63103103637697	-1137.3125	-270.2063293457032	53.68055343627931	-1124.697021484375	-273.2312927246094	52.93417739868165	-1162.555053710938	-311.5313720703126	33.37595367431641	-1216.091918945313	-353.6287231445313	700.6033935546876	-709.6749877929689	-303.8321533203126	657.1748657226564	-697.0935058593751	-271.2075195312501	666.8707275390626	-698.6982421875001	-304.3691406250001	574.6776123046876	-713.7444458007814	-260.0512390136719	447.6089172363282	-698.0159301757814	-246.9813995361329	413.4605407714845	-811.8730468750002	-266.5235595703126	279.0415039062501	-763.4310913085939	-326.6872558593751	227.0730133056641	-687.2983398437501	-306.4961242675782	211.2957916259766	-727.4799804687501	-340.8957824707032	173.4777221679688	-756.0281982421876	-447.0159606933595	86.92539978027345	-690.9608764648439	-431.373504638672	99.06177520751956	-780.2061767578127	-515.3705444335939	41.86287307739259	-745.7298583984376	-284.7098388671876	54.38298416137697	-726.8158569335939	-290.3154296875001	53.34009552001955	-686.6627197265626	-335.6889953613282	32.69292068481446	-641.2627563476564	
853	4.26	-183.3234252929688	1586.937866210938	-954.131530761719	-308.7748107910157	1521.927001953125	-964.0686035156252	-311.5739440917969	1497.823852539063	-831.4546508789065	-331.8391113281251	1430.034423828125	-895.9832763671877	-455.8245239257814	1109.111206054688	-908.3063964843752	-211.3853302001954	1328.939086914063	-915.6143798828127	-258.3200683593751	1367.0068359375	-1082.958129882813	-357.0867614746094	1301.154296875	-1197.3154296875	-350.3996276855469	1250.921264648438	-1203.830444335938	-399.0103149414064	1262.855834960938	-1239.24853515625	-453.8117065429689	1189.45263671875	-1291.3330078125	-525.0346679687501	1188.83056640625	-1247.855590820313	-428.066619873047	962.687438964844	-1148.699951171875	-396.3435058593751	945.0278930664065	-1213.164672851563	-386.5395812988282	936.992858886719	-1105.501953125	-210.0546875000001	1342.800170898438	-740.1325683593751	-306.1289062500001	1266.416625976563	-600.5501708984376	-300.2626342773438	1216.801391601563	-598.1649169921876	-346.0278930664063	1226.105224609375	-559.0039062500001	-383.0395812988282	1149.408081054688	-520.0936279296876	-461.2081298828126	1156.13671875	-570.3343505859376	-410.9642639160157	938.2590942382815	-684.7897949218751	-361.6394653320313	910.4439086914065	-633.7783203125001	-357.7335815429688	923.3114013671877	-736.7113037109376	-331.7837524414063	928.2251586914065	-1059.310791015625	-305.7239990234376	908.6160278320315	-817.626892089844	-492.9321289062501	992.951110839844	-908.630798339844	-508.0656127929689	965.362243652344	-936.872009277344	-505.4011535644532	961.200134277344	-880.7110595703127	-317.8319396972657	644.9325561523439	-1170.400024414063	-255.4594268798829	585.3994140625001	-1181.2822265625	-209.024154663086	601.1109008789064	-1167.21875	-262.8618164062501	528.2855224609376	-1173.998779296875	-256.9371032714844	475.8381958007814	-1186.15478515625	-240.0222320556641	459.2515258789064	-1061.079833984375	-258.8371276855469	274.0289916992188	-1155.676879882813	-333.2132873535157	266.6069946289063	-1202.759155273438	-300.3646240234376	242.491928100586	-1187.0390625	-329.3773193359376	168.7919311523438	-1155.33837890625	-435.8938598632814	82.71227264404298	-1180.681030273438	-415.4455871582032	102.8226547241211	-1093.447265625	-499.2702026367189	49.68490982055665	-1137.445678710938	-269.2537841796876	53.9625587463379	-1124.818237304688	-273.7769775390626	52.03502655029298	-1162.633056640625	-310.7778320312501	33.34807968139649	-1216.114624023438	-350.9645385742188	695.7248535156251	-709.5615844726564	-298.4164428710938	655.5159912109376	-697.7413330078126	-266.3847656250001	666.1453857421876	-700.4324951171876	-296.0451354980469	572.4157714843751	-710.9416503906251	-248.322006225586	450.1069335937501	-696.1544799804689	-239.8012847900391	416.8192749023439	-812.3850708007815	-259.5266723632813	277.4031677246094	-761.9209594726564	-319.9787597656251	225.3693542480469	-687.5852661132814	-299.4963378906251	207.4823913574219	-727.1019287109376	-336.4184570312501	173.4153900146485	-755.7921142578126	-440.9195251464845	83.01446533203126	-691.1674804687501	-424.5079956054689	95.90517425537111	-781.2066650390627	-513.2369384765626	43.75628280639649	-745.8505249023439	-283.0664062500001	54.50619125366212	-726.3223876953126	-288.6828002929688	52.99109649658205	-685.8955688476564	-334.8099670410157	32.46723556518555	-641.0082397460939	
854	4.265	-183.7092590332032	1579.002319335938	-954.426696777344	-308.1192016601563	1513.773193359375	-964.7561035156252	-310.9754333496094	1489.613037109375	-831.5079345703127	-329.8503417968751	1422.6826171875	-896.503845214844	-457.3177185058595	1102.27880859375	-908.8133544921877	-210.840072631836	1319.65234375	-915.7977294921877	-257.6111450195313	1357.226440429688	-1084.00732421875	-357.0862121582032	1291.462036132813	-1197.6005859375	-350.6386718750001	1241.134155273438	-1203.647094726563	-399.3902587890626	1252.974853515625	-1239.3017578125	-453.963104248047	1179.208740234375	-1291.279418945313	-524.9650878906251	1178.317260742188	-1247.706787109375	-428.6179199218751	952.6668701171877	-1149.221923828125	-396.6455383300782	934.9431152343752	-1213.524536132813	-388.0258178710939	926.8254394531252	-1106.207397460938	-209.0653228759766	1333.106811523438	-740.0294189453126	-306.2914123535157	1256.865600585938	-600.5246582031251	-300.6955871582032	1207.076416015625	-598.7098388671876	-346.2614135742188	1216.368774414063	-559.5223999023439	-383.4313354492188	1139.525390625	-520.3820190429689	-461.2136840820314	1145.955444335938	-570.5900268554689	-412.3005371093751	928.0743408203127	-683.4440307617189	-361.9454040527344	900.1149902343752	-633.4883422851564	-359.8390197753907	913.0813598632815	-735.8632812500001	-335.5814819335938	917.503356933594	-1060.962036132813	-309.9854736328126	897.6452636718752	-817.1955566406252	-495.5872192382814	986.6736450195315	-908.430114746094	-510.9011230468751	959.2691040039065	-936.3653564453127	-508.5668945312501	955.237243652344	-880.3621215820315	-310.9328308105469	643.1221923828126	-1171.875854492188	-247.2617797851563	585.5908813476564	-1181.970336914063	-202.0927124023438	601.8709716796876	-1165.104248046875	-252.6901092529297	527.9718627929689	-1176.537475585938	-242.2887573242188	474.3649291992189	-1190.0908203125	-231.9460906982422	461.3907165527345	-1061.361938476563	-252.3461151123047	271.6816406250001	-1156.685180664063	-327.8325195312501	265.7888488769532	-1202.459594726563	-294.2536010742188	241.6984405517579	-1187.950317382813	-325.9879150390626	168.7684478759766	-1156.777099609375	-434.8796386718751	84.1487503051758	-1180.38623046875	-412.4394836425782	102.1972885131836	-1093.25634765625	-497.9707336425782	51.21744537353517	-1136.965454101563	-267.7288208007813	53.62292861938478	-1125.363525390625	-272.2428283691407	51.89802169799806	-1163.128051757813	-310.3233032226563	32.55133056640626	-1216.22021484375	-347.4571533203126	691.9818115234376	-709.1176147460939	-293.0784606933594	653.8125610351564	-697.8448486328126	-261.9362487792969	665.2413330078126	-701.4220581054689	-288.9995117187501	569.8536376953126	-708.0543823242189	-235.3336791992188	450.6695861816407	-693.7992553710939	-231.1244201660157	419.3120727539064	-813.5003662109377	-253.1426239013672	275.9327392578126	-761.2355957031251	-314.2919921875001	224.2112884521485	-688.6832885742189	-294.0076599121094	206.3787689208985	-728.3066406250001	-331.5188598632813	173.1188354492188	-756.3245849609376	-436.8116760253907	80.85564422607423	-692.8236083984376	-420.2054748535157	95.03385162353517	-782.0972900390627	-510.6850891113282	45.53153610229493	-747.1132812500001	-280.6781311035157	54.43259429931642	-725.9191284179689	-286.6777954101563	52.5275344848633	-685.5792846679689	-333.7957458496094	32.72309112548829	-641.3789672851564	
